# xmcd
#
# Track frame offsets:
# 150
# 24139
# 37452
# 51518
# 66304
# 83161
# 97958
# 107891
# 125386
# 138427
# 150128
# 162960
# 182169
# 190049
# 213428
# 223468
# 235029
#
# Disc length: 3456 seconds
#
#
# Revision: 4
# Processed by: cddbd v1.5.2PL0 Copyright (c) Steve Scherf et al.
# Submitted via: FreeRIP 2.944 
#
DISCID=ef0d7e11
DTITLE=Michal Tucny - Kosmickej vandr
DYEAR=1900
DGENRE=
TTITLE0=Kosmickej vandr
TTITLE1=Je to zvlastni
TTITLE2=Sundej s hodin zavazi
TTITLE3=Ja si jen tak litam
TTITLE4=Az prijde ten den
TTITLE5=Davej vinu dalkam
TTITLE6=Rovnou, tady rovnou
TTITLE7=Dlouha cerna limuzina
TTITLE8=Prodavac
TTITLE9=Modry mesic
TTITLE10=Ja svetem tah jen tak s celtou
TTITLE11=Muj kalendar
TTITLE12=Lodni zvon zvoni
TTITLE13=Len chciet (Vzdyt to vis)
TTITLE14=Kocerem mym je vagon
TTITLE15=Vanocni
TTITLE16=Kosmickej vandr (2)
EXTD=
EXTT0=
EXTT1=
EXTT2=
EXTT3=
EXTT4=
EXTT5=
EXTT6=
EXTT7=
EXTT8=
EXTT9=
EXTT10=
EXTT11=
EXTT12=
EXTT13=
EXTT14=
EXTT15=
EXTT16=
PLAYORDER=
